# xmcd
#
# Track frame offsets:
#	150
#	10060
#	19140
#	38100
#	51820
#	69465
#	79637
#	93047
#	105765
#	120207
#	136675
#	148602
#	163710
#	192235
#	207157
#	226140
#	239870
#	251715
#	265302
#	282250
#
# Disc length: 3978 seconds
#
# Revision: 2
# Processed by: cddbd v1.4PL0 Copyright (c) Steve Scherf et al.
# Submitted via: CDmax 1.8
#
DISCID=040f8814
DTITLE=Ray Charles - His Greatest Hits - Volume 2
DYEAR=1987
DGENRE=Misc
TTITLE0=Busted
TTITLE1=Hit the Road jack
TTITLE2=I Can't Stop Loving You
TTITLE3=You Are My Sunshine
TTITLE4=Ruby
TTITLE5=Sticks and Stones
TTITLE6=Take These Chains from My Heart
TTITLE7=Them That Got
TTITLE8=No One
TTITLE9=Without Love (There Is Nothing)
TTITLE10=Don't Set Me Free
TTITLE11=I'm a Fool to Care
TTITLE12=Makin' Whoopee, Parts 1 and 2
TTITLE13=Hardhearted Hannah
TTITLE14=Baby It's Cold Outside
TTITLE15=At the Club
TTITLE16=In the Heat of the Night
TTITLE17=Eleanor Rigby
TTITLE18=Look What They Done to My Song, Ma
TTITLE19=America the Beautiful
EXTD=LABEL =Dunhill Compact Classics, Inc.\nID =DZS037\nUPC =010963-00037\n
EXTD=COPYRIGHT =1987
EXTT0=
EXTT1=
EXTT2=
EXTT3=
EXTT4=
EXTT5=
EXTT6=
EXTT7=
EXTT8=
EXTT9=
EXTT10=
EXTT11=
EXTT12=
EXTT13=
EXTT14=
EXTT15=
EXTT16=
EXTT17=
EXTT18=
EXTT19=
PLAYORDER=
